<?xml version="1.0" encoding="utf-8"?>
<!-- Generator: Adobe Illustrator 17.0.0, SVG Export Plug-In . SVG Version: 6.00 Build 0)  -->
<!DOCTYPE svg PUBLIC "-//W3C//DTD SVG 1.1//EN" "http://www.w3.org/Graphics/SVG/1.1/DTD/svg11.dtd">
<svg version="1.1" id="Capa_1" xmlns="http://www.w3.org/2000/svg" xmlns:xlink="http://www.w3.org/1999/xlink" x="0px" y="0px"
	 width="214px" height="90px" viewBox="0 0 214 90" enable-background="new 0 0 214 90" xml:space="preserve">
<g>
	<g>
		<polygon fill="#D9DADC" points="47.505,70.361 75.606,70.361 75.606,64.465 74.992,64.465 47.505,64.465 		"/>
		<rect x="139.319" y="64.465" fill="#D9DADC" width="27.176" height="7.161"/>
		<path fill="#D9DADC" d="M119.674,22.287v-5.714l-2.046-0.951l0.952,0.951c-5.249-1.304-14.358-2.807-22.701-0.459v7.931h2.285
			c0.199-0.363,0.419-0.734,0.685-1.12C98.85,22.924,106.75,17.093,119.674,22.287z"/>
		<path fill="#D9DADC" d="M127.482,39.762c0,0-4.774-3.366-19.948-5.03c0,0-11.005-1.858-10.238-8.15l-0.046-0.01v8.14
			c0,0,3.053,7.309,17.648,7.582c14.056,0.267,26.744,11.157,26.538,15.733C142.281,51.746,139.257,45.079,127.482,39.762z"/>
		<path fill="#D9DADC" d="M121.225,56.34c-0.4,2.423-2.911,5.224-9.641,8.125c-0.338,0.145-0.662,0.291-1.022,0.436
			c0,0-5.885,2.09-15.586-0.436c-5.544-1.447-12.328-4.389-19.985-10.106c0,0-1.439,1.279-1.486,4.173v0.001
			c0,0,16.975,13.093,31.572,11.827C121.698,68.917,121.936,65.053,121.225,56.34L121.225,56.34z"/>
		<path fill="#1B3F82" d="M118.58,16.573l-0.952-0.951L106.997,5L95.88,16.114C104.223,13.765,113.331,15.269,118.58,16.573z"/>
		<path fill="#1B3F82" d="M131.542,29.53L131.542,29.53c-4.305-3.508-8.278-5.8-11.868-7.243
			c-12.923-5.194-20.824,0.637-20.824,0.637c-0.267,0.386-0.486,0.758-0.685,1.12c-0.497,0.917-0.774,1.761-0.868,2.538
			c-0.767,6.292,10.238,8.15,10.238,8.15c15.173,1.664,19.948,5.03,19.948,5.03c11.775,5.316,14.799,11.984,13.955,18.266
			c-0.295,2.221-1.069,4.391-2.118,6.437h27.176L131.542,29.53z"/>
		<path fill="#1B3F82" d="M74.992,54.359c7.657,5.717,14.441,8.658,19.985,10.106c9.701,2.526,15.586,0.436,15.586,0.436
			c0.36-0.145,0.684-0.291,1.022-0.436c6.729-2.9,9.24-5.701,9.641-8.125c0.763-4.615-6.095-7.875-6.095-7.875
			C87.466,42.32,81.651,34.978,80.526,31.461L47.505,64.465h27.487c-1.156-2.461-1.51-4.418-1.486-5.933
			C73.553,55.638,74.992,54.359,74.992,54.359z"/>
	</g>
	<g>
		<g>
			<path fill="#1B3F82" d="M82.226,84.888h-1.67l-0.664-1.443h-3.038l-0.627,1.443H74.6l2.96-6.35h1.622L82.226,84.888z
				 M79.401,82.376l-1.048-2.357l-1.027,2.357H79.401z"/>
			<path fill="#1B3F82" d="M88.587,84.888V78.59h1.534v5.227h3.816v1.07H88.587z"/>
			<path fill="#1B3F82" d="M100.348,82.822l1.493-0.122c0.09,0.419,0.272,0.726,0.547,0.922c0.275,0.196,0.645,0.296,1.111,0.296
				c0.494,0,0.867-0.088,1.118-0.263c0.251-0.174,0.376-0.378,0.376-0.613c0-0.151-0.053-0.279-0.159-0.383
				c-0.104-0.105-0.289-0.197-0.551-0.275c-0.18-0.051-0.589-0.145-1.229-0.278c-0.822-0.169-1.4-0.379-1.731-0.627
				c-0.466-0.349-0.699-0.776-0.699-1.277c0-0.324,0.109-0.627,0.329-0.907c0.219-0.283,0.536-0.496,0.949-0.644
				c0.413-0.148,0.912-0.22,1.496-0.22c0.953,0,1.671,0.175,2.153,0.524c0.482,0.349,0.735,0.815,0.759,1.398l-1.534,0.057
				c-0.066-0.326-0.208-0.561-0.424-0.704c-0.216-0.143-0.539-0.215-0.971-0.215c-0.446,0-0.795,0.077-1.048,0.23
				c-0.162,0.098-0.243,0.23-0.243,0.395c0,0.149,0.077,0.278,0.229,0.385c0.193,0.136,0.663,0.278,1.409,0.426
				c0.747,0.145,1.299,0.298,1.657,0.455c0.358,0.157,0.637,0.372,0.84,0.646c0.202,0.272,0.303,0.61,0.303,1.011
				c0,0.363-0.121,0.705-0.363,1.023c-0.241,0.318-0.584,0.554-1.026,0.709c-0.443,0.153-0.993,0.231-1.654,0.231
				c-0.96,0-1.698-0.185-2.214-0.556C100.756,84.072,100.448,83.531,100.348,82.822z"/>
			<path fill="#1B3F82" d="M113.708,78.537h1.533v3.439c0,0.547,0.02,0.9,0.058,1.062c0.066,0.26,0.222,0.468,0.469,0.626
				c0.247,0.159,0.585,0.236,1.013,0.236c0.437,0,0.764-0.073,0.986-0.223c0.221-0.149,0.354-0.331,0.399-0.548
				c0.044-0.217,0.067-0.575,0.067-1.078v-3.513h1.535v3.336c0,0.761-0.041,1.301-0.125,1.614c-0.083,0.316-0.237,0.581-0.459,0.799
				c-0.223,0.216-0.52,0.388-0.893,0.517c-0.374,0.129-0.861,0.192-1.463,0.192c-0.726,0-1.276-0.07-1.651-0.21
				c-0.374-0.14-0.67-0.321-0.889-0.545c-0.218-0.225-0.361-0.458-0.43-0.704c-0.099-0.365-0.15-0.902-0.15-1.612V78.537z"/>
			<path fill="#1B3F82" d="M127.289,84.888v-6.35h3.229c0.812,0,1.403,0.057,1.771,0.172c0.367,0.113,0.662,0.316,0.884,0.607
				c0.22,0.294,0.331,0.627,0.331,1.002c0,0.476-0.166,0.868-0.502,1.18c-0.335,0.31-0.837,0.506-1.504,0.587
				c0.333,0.163,0.606,0.34,0.822,0.534c0.217,0.192,0.507,0.536,0.874,1.031l0.928,1.238h-1.836l-1.109-1.381
				c-0.393-0.494-0.663-0.806-0.808-0.933c-0.145-0.128-0.299-0.217-0.462-0.264c-0.163-0.049-0.42-0.072-0.772-0.072h-0.311v2.651
				H127.289z M128.823,81.223h1.135c0.736,0,1.195-0.026,1.379-0.077c0.183-0.052,0.328-0.142,0.43-0.27
				c0.104-0.126,0.156-0.286,0.156-0.475c0-0.215-0.068-0.388-0.205-0.519c-0.137-0.132-0.331-0.215-0.578-0.249
				c-0.125-0.015-0.498-0.021-1.12-0.021h-1.198V81.223z"/>
		</g>
		<path fill="#1B3F82" d="M137.953,76.562v-1.048h0.702c0.358,0,0.739,0.08,0.739,0.498c0,0.517-0.393,0.549-0.825,0.549H137.953
			 M137.953,76.995h0.589l0.894,1.468h0.578l-0.964-1.492c0.499-0.058,0.873-0.324,0.873-0.931c0-0.665-0.395-0.961-1.189-0.961
			h-1.29v3.384h0.51V76.995z M138.58,79.705c1.592,0,2.96-1.242,2.96-2.938c0-1.687-1.368-2.928-2.96-2.928
			c-1.618,0-2.984,1.241-2.984,2.928C135.596,78.463,136.962,79.705,138.58,79.705z M136.189,76.766
			c0-1.391,1.044-2.439,2.391-2.439c1.32,0,2.371,1.049,2.371,2.439c0,1.411-1.051,2.448-2.371,2.448
			C137.233,79.214,136.189,78.178,136.189,76.766z"/>
	</g>
</g>
</svg>
